<svg width="37" height="50" viewBox="0 0 37 50" fill="none" xmlns="http://www.w3.org/2000/svg">
<g clip-path="url(#clip0_101_23)">
<path d="M14.8199 5.08789C13.2042 3.81836 11.2231 3.125 9.18431 3.125C4.10649 3.125 0 7.29492 0 12.4512V13.0566C0 14.5996 0.355832 16.1133 1.02903 17.5L3.28904 22.0996C3.72181 22.9688 4.01994 23.8965 4.19305 24.8535L7.73213 44.9414C7.92447 46.0352 8.84771 46.8359 9.93444 46.875C11.0212 46.9141 11.9925 46.1523 12.2425 45.0781L15.0219 33.2324C15.4066 31.6113 16.8299 30.4688 18.4648 30.4688C20.0997 30.4688 21.523 31.6113 21.9077 33.2324L24.687 45.0781C24.9371 46.1621 25.9084 46.9141 26.9951 46.875C28.0819 46.8359 29.0051 46.0352 29.1974 44.9414L32.7269 24.8438C32.9 23.8867 33.1982 22.959 33.6309 22.0898L35.8909 17.4902C36.5737 16.1133 36.92 14.5898 36.92 13.0469V12.8418C36.92 7.4707 32.6307 3.11523 27.3413 3.11523C25.0236 3.11523 22.7829 3.97461 21.0325 5.51758L20.7248 5.79102L22.6001 7.27539C23.2733 7.80273 23.3887 8.78906 22.8694 9.47266C22.3501 10.1562 21.3788 10.2734 20.7056 9.74609L18.359 7.89062L14.8007 5.07812L14.8199 5.08789Z" fill="#FBFDFF"/>
</g>
<defs>
<clipPath id="clip0_101_23">
<rect width="36.9296" height="50" fill="white"/>
</clipPath>
</defs>
</svg>
