<svg width="114" height="50" viewBox="0 0 114 50" fill="none" xmlns="http://www.w3.org/2000/svg">
<g clip-path="url(#clip0_208_3)">
<path d="M14.8199 5.08789C13.2042 3.81836 11.2231 3.125 9.18431 3.125C4.10649 3.125 0 7.29492 0 12.4512V13.0566C0 14.5996 0.355832 16.1133 1.02903 17.5L3.28904 22.0996C3.72181 22.9688 4.01994 23.8965 4.19305 24.8535L7.73213 44.9414C7.92447 46.0352 8.84771 46.8359 9.93444 46.875C11.0212 46.9141 11.9925 46.1523 12.2425 45.0781L15.0219 33.2324C15.4066 31.6113 16.8299 30.4688 18.4648 30.4688C20.0997 30.4688 21.523 31.6113 21.9077 33.2324L24.687 45.0781C24.9371 46.1621 25.9084 46.9141 26.9951 46.875C28.0819 46.8359 29.0051 46.0352 29.1974 44.9414L32.7269 24.8438C32.9 23.8867 33.1982 22.959 33.6309 22.0898L35.8909 17.4902C36.5737 16.1133 36.92 14.5898 36.92 13.0469V12.8418C36.92 7.4707 32.6307 3.11523 27.3413 3.11523C25.0236 3.11523 22.7829 3.97461 21.0325 5.51758L20.7248 5.79102L22.6001 7.27539C23.2733 7.80273 23.3887 8.78906 22.8694 9.47266C22.3501 10.1562 21.3788 10.2734 20.7056 9.74609L18.359 7.89062L14.8007 5.07812L14.8199 5.08789Z" fill="#FBFDFF"/>
</g>
<path d="M45.4597 23.9768V0.73627H51.9318C54.2387 0.73627 56.2039 1.0884 57.8272 1.79266C59.4506 2.49692 60.7536 3.42526 61.7361 4.57768C62.7401 5.7301 63.4663 7.01057 63.9149 8.41909C64.3848 9.8276 64.6198 11.2468 64.6198 12.6767C64.6198 14.4053 64.3101 15.9632 63.6906 17.3504C63.0712 18.7375 62.2274 19.9326 61.1594 20.9357C60.0914 21.9174 58.8632 22.675 57.4748 23.2085C56.0864 23.7207 54.6125 23.9768 53.0532 23.9768H45.4597ZM48.888 20.6796H52.4124C53.6727 20.6796 54.8261 20.4982 55.8728 20.1354C56.9408 19.7726 57.8593 19.2391 58.6282 18.5348C59.4186 17.8305 60.0273 16.9662 60.4545 15.9418C60.8817 14.9175 61.0953 13.7437 61.0953 12.4206C61.0953 10.9907 60.8497 9.75291 60.3584 8.70719C59.8885 7.64014 59.2584 6.76515 58.468 6.08223C57.6777 5.37797 56.7913 4.86578 55.8087 4.54567C54.8475 4.20421 53.8649 4.03348 52.861 4.03348H48.888V20.6796Z" fill="#FBFDFF"/>
<path d="M69.7089 0.73627H84.9921V4.03348H73.1372V10.6599H83.6785V13.9571H73.1372V20.6796H85.4407V23.9768H69.7089V0.73627Z" fill="#FBFDFF"/>
<path d="M110.986 24.7771L93.0751 7.01057L94.0683 7.33069L94.1644 23.9768H90.7041V0H90.8643L108.551 17.7985L107.75 17.5744L107.685 0.73627H111.082V24.7771H110.986Z" fill="#FBFDFF"/>
<path d="M52.9454 48.7633C52.464 49.1411 51.8881 49.4417 51.2176 49.665C50.5471 49.8883 49.8765 50 49.206 50C48.037 50 47.014 49.7681 46.1372 49.3043C45.2604 48.8405 44.5727 48.1964 44.0741 47.3719C43.5927 46.5302 43.3521 45.5426 43.3521 44.4089C43.3521 43.2752 43.6099 42.2875 44.1257 41.4458C44.6587 40.6042 45.3464 39.96 46.1888 39.5134C47.0484 39.0496 47.9682 38.8177 48.9482 38.8177C49.8078 38.8177 50.5728 38.938 51.2433 39.1785C51.931 39.4189 52.5156 39.7453 52.997 40.1576L51.8107 41.7035C51.5012 41.463 51.123 41.2483 50.676 41.0594C50.229 40.8704 49.7218 40.7759 49.1545 40.7759C48.5355 40.7759 47.9596 40.9391 47.4266 41.2655C46.9109 41.5747 46.4983 42.0041 46.1888 42.5538C45.8965 43.1034 45.7504 43.7218 45.7504 44.4089C45.7504 45.0616 45.9051 45.6714 46.2146 46.2382C46.524 46.7879 46.9538 47.2259 47.504 47.5523C48.0542 47.8615 48.6817 48.0161 49.3866 48.0161C49.8508 48.0161 50.272 47.9473 50.6502 47.8099C51.0456 47.6725 51.3981 47.4836 51.7075 47.2431L52.9454 48.7633Z" fill="#FBFDFF"/>
<path d="M58.8782 29.7998H61.2765V49.7423H58.8782V29.7998Z" fill="#FBFDFF"/>
<path d="M68.2628 39.0754H70.6611V49.7423H68.2628V39.0754ZM68.0822 35.2106C68.0822 34.8327 68.2284 34.5149 68.5207 34.2572C68.8301 33.9996 69.1654 33.8708 69.5264 33.8708C69.8874 33.8708 70.2055 33.9996 70.4806 34.2572C70.7728 34.5149 70.919 34.8327 70.919 35.2106C70.919 35.6056 70.7728 35.932 70.4806 36.1897C70.2055 36.4301 69.8874 36.5504 69.5264 36.5504C69.1654 36.5504 68.8301 36.4216 68.5207 36.1639C68.2284 35.9062 68.0822 35.5885 68.0822 35.2106Z" fill="#FBFDFF"/>
<path d="M79.7878 39.0754L79.9941 41.6777L79.891 41.2655C80.2348 40.4753 80.7936 39.8484 81.5672 39.3846C82.3409 38.9036 83.2349 38.6632 84.2492 38.6632C85.2636 38.6632 86.0888 38.9638 86.7249 39.5649C87.3782 40.149 87.7135 40.9133 87.7307 41.8581V49.7423H85.3066V42.7083C85.2894 42.1243 85.1175 41.652 84.7908 41.2912C84.4813 40.9133 83.9914 40.7244 83.3209 40.7244C82.7019 40.7244 82.1432 40.8962 81.6446 41.2397C81.146 41.5833 80.7506 42.0556 80.4583 42.6568C80.1832 43.258 80.0457 43.9537 80.0457 44.7438V49.7423H77.6474V39.0754H79.7878Z" fill="#FBFDFF"/>
<path d="M94.7383 39.0754H97.1367V49.7423H94.7383V39.0754ZM94.5578 35.2106C94.5578 34.8327 94.7039 34.5149 94.9962 34.2572C95.3057 33.9996 95.6409 33.8708 96.002 33.8708C96.363 33.8708 96.6811 33.9996 96.9561 34.2572C97.2484 34.5149 97.3945 34.8327 97.3945 35.2106C97.3945 35.6056 97.2484 35.932 96.9561 36.1897C96.6811 36.4301 96.363 36.5504 96.002 36.5504C95.6409 36.5504 95.3057 36.4216 94.9962 36.1639C94.7039 35.9062 94.5578 35.5885 94.5578 35.2106Z" fill="#FBFDFF"/>
<path d="M104.123 49.7423V29.7998H106.521V49.7423H104.123ZM109.1 42.6568L114 49.7423H111.189L107.501 43.9966L109.1 42.6568ZM105.773 46.3413L105.541 44.0482L112.014 38.8435L113.484 40.106L105.773 46.3413Z" fill="#FBFDFF"/>
<defs>
<clipPath id="clip0_208_3">
<rect width="36.9296" height="50" fill="white"/>
</clipPath>
</defs>
</svg>
